# xmcd
#
# Track frame offsets:
#	150
#	14482
#	26747
#	39695
#	55802
#	68682
#	85075
#	97142
#
# Disc length: 1463 seconds
#
# Revision: 0
# Processed by: cddbd v1.4PL0 Copyright (c) Steve Scherf et al.
# Submitted via: dBpowerAMP V4.0
#
DISCID=6505b508
DTITLE=Merle Haggard - Country Legend
DYEAR=1900
DGENRE=
TTITLE0=Branded Man
TTITLE1=Working Man Blues
TTITLE2=The Fightin' Side of Me
TTITLE3=It's Not Love (But It's Not Bad)
TTITLE4=Sing Me Back Home
TTITLE5=Ramblin' Fever/When My Blue Moon Turns Gold Again
TTITLE6=Things Aren't Funny Anymore
TTITLE7=I Take Alot of Pride In What I Am
EXTD=Country Legend\nMerle Haggard\nmanufacture by platinum disc corporation
EXTT0=
EXTT1=
EXTT2=
EXTT3=
EXTT4=
EXTT5=
EXTT6=
EXTT7=
PLAYORDER=
